HIERARCHY
ROOT SpineBase
{
  OFFSET 0.000000 0.000000 0.000000
  CHANNELS 6 Xposition Yposition Zposition Zrotation Xrotation Yrotation
  JOINT SpineMid
  {
    OFFSET -0.000000 26.336164 0.000000
    CHANNELS 3 Zrotation Xrotation Yrotation
    JOINT SpineShoulder
    {
      OFFSET -0.082489 19.641328 -0.645970
      CHANNELS 3 Zrotation Xrotation Yrotation
      JOINT Neck
      {
        OFFSET -0.043642 6.526943 -0.493913
        CHANNELS 3 Zrotation Xrotation Yrotation
        JOINT Head
        {
          OFFSET -3.424748 10.565741 0.632954
          CHANNELS 3 Zrotation Xrotation Yrotation
          End Site
          {
            OFFSET 0 0 0
          }
        }
      }
      JOINT ShoulderLeft
      {
        OFFSET -12.862808 -3.725354 5.592989
        CHANNELS 3 Zrotation Xrotation Yrotation
        JOINT ElbowLeft
        {
          OFFSET -0.157557 -21.280338 1.174988
          CHANNELS 3 Zrotation Xrotation Yrotation
          JOINT WristLeft
          {
            OFFSET -4.177936 4.508419 -22.093742
            CHANNELS 3 Zrotation Xrotation Yrotation
            JOINT HandLeft
            {
              OFFSET 2.765797 1.461409 -1.774535
              CHANNELS 3 Zrotation Xrotation Yrotation
              JOINT HandTipLeft
              {
                OFFSET 4.794359 1.328401 -6.461849
                CHANNELS 3 Zrotation Xrotation Yrotation
                End Site
                {
                  OFFSET 0 0 0
                }
              }
              JOINT ThumbLeft
              {
                OFFSET 2.020470 2.561727 -3.135413
                CHANNELS 3 Zrotation Xrotation Yrotation
                End Site
                {
                  OFFSET 0 0 0
                }
              }
            }
          }
        }
      }
      JOINT ShoulderRight
      {
        OFFSET 10.176892 -2.378958 -7.508645
        CHANNELS 3 Zrotation Xrotation Yrotation
        JOINT ElbowRight
        {
          OFFSET 6.557031 -18.659369 -2.458633
          CHANNELS 3 Zrotation Xrotation Yrotation
          JOINT WristRight
          {
            OFFSET -20.550139 1.957436 -12.674084
            CHANNELS 3 Zrotation Xrotation Yrotation
            JOINT HandRight
            {
              OFFSET -1.640365 0.692434 -0.230866
              CHANNELS 3 Zrotation Xrotation Yrotation
              JOINT HandTipRight
              {
                OFFSET -2.610118 0.988275 -1.372934
                CHANNELS 3 Zrotation Xrotation Yrotation
                End Site
                {
                  OFFSET 0 0 0
                }
              }
              JOINT ThumbRight
              {
                OFFSET -1.426095 -0.339564 -0.136225
                CHANNELS 3 Zrotation Xrotation Yrotation
                End Site
                {
                  OFFSET 0 0 0
                }
              }
            }
          }
        }
      }
    }
  }
  JOINT HipLeft
  {
    OFFSET -5.289581 0.281743 -0.914177
    CHANNELS 3 Zrotation Xrotation Yrotation
    JOINT KneeLeft
    {
      OFFSET 4.659570 -35.288336 2.368682
      CHANNELS 3 Zrotation Xrotation Yrotation
      JOINT AnkleLeft
      {
        OFFSET 6.537814 -30.717808 4.003274
        CHANNELS 3 Zrotation Xrotation Yrotation
        JOINT FootLeft
        {
          OFFSET -1.000585 -5.255333 -3.107184
          CHANNELS 3 Zrotation Xrotation Yrotation
          End Site
          {
            OFFSET 0 0 0
          }
        }
      }
    }
  }
  JOINT HipRight
  {
    OFFSET 4.899096 1.190013 -5.095531
    CHANNELS 3 Zrotation Xrotation Yrotation
    JOINT KneeRight
    {
      OFFSET 5.508151 -34.220112 -1.501219
      CHANNELS 3 Zrotation Xrotation Yrotation
      JOINT AnkleRight
      {
        OFFSET 2.727137 -32.948164 5.294132
        CHANNELS 3 Zrotation Xrotation Yrotation
        JOINT FootRight
        {
          OFFSET -3.589582 -5.704053 -1.084928
          CHANNELS 3 Zrotation Xrotation Yrotation
          End Site
          {
            OFFSET 0 0 0
          }
        }
      }
    }
  }
}
MOTION
Frames: 15
Frame Time: 0.033333
23.334092 72.047900 366.102914 0.000000 0.000000 22.312868 -0.000000 0.000000 -22.312868 -0.000000 0.000000 0.000000 -0.000000 0.000000 0.000000 0.000000 0.000000 0.000000 -0.000000 0.000000 0.000000 -0.000000 0.000000 0.000000 -0.000000 0.000000 0.000000 -0.000000 0.000000 0.000000 0.000000 0.000000 0.000000 0.000000 0.000000 0.000000 -0.000000 0.000000 0.000000 -0.000000 0.000000 0.000000 -0.000000 0.000000 0.000000 -0.000000 0.000000 0.000000 0.000000 0.000000 0.000000 0.000000 0.000000 0.000000 -0.000000 0.000000 -22.312868 -0.000000 0.000000 0.000000 -0.000000 0.000000 0.000000 0.000000 0.000000 0.000000 -0.000000 0.000000 -22.312868 -0.000000 0.000000 0.000000 -0.000000 0.000000 0.000000 0.000000 0.000000 0.000000
23.309460 72.029291 366.064732 -0.038399 0.068168 22.558314 0.009310 -0.077683 -22.558285 -0.000000 0.000000 0.000000 -0.000000 0.000000 0.000000 0.000000 0.000000 0.000000 -0.000000 0.000000 0.000000 -1.251934 0.536135 -5.820247 6.821750 -0.219009 13.965535 -6.561812 0.100698 -8.530759 0.000000 0.000000 0.000000 0.000000 0.000000 0.000000 -0.000000 0.000000 0.000000 0.545530 -0.039020 2.967241 6.949639 -2.806136 -5.671245 4.406302 4.261316 19.046474 0.000000 0.000000 0.000000 0.000000 0.000000 0.000000 0.009310 -0.077683 -22.558285 -0.000000 0.000000 0.000000 6.312430 4.797190 -4.842525 0.000000 0.000000 0.000000 0.009310 -0.077683 -22.558285 -0.000000 0.000000 0.000000 -2.989908 21.862716 -12.091066 0.000000 0.000000 0.000000
23.284128 72.010150 366.031325 -0.069719 0.123596 22.771830 0.016445 -0.140948 -22.771734 -0.000000 0.000000 0.000000 0.793576 -0.689028 -0.265610 0.000000 0.000000 0.000000 -0.000000 0.000000 0.000000 -2.225398 1.046806 -10.550828 10.665160 0.461949 23.258050 -10.578942 0.231121 -13.075148 0.000000 0.000000 0.000000 0.000000 0.000000 0.000000 -0.000000 0.000000 0.000000 1.037349 -0.046440 5.670794 8.307503 -4.865970 -10.593110 11.262024 10.207413 33.460407 0.000000 0.000000 0.000000 0.000000 0.000000 0.000000 0.016445 -0.140948 -22.771734 -0.260146 -0.808549 -0.207738 10.248022 10.010045 -8.154032 0.000000 0.000000 0.000000 0.016445 -0.140948 -22.771734 -0.000000 0.000000 0.000000 -2.430024 34.975439 -19.824666 0.000000 0.000000 0.000000
23.258094 71.990476 366.002691 -0.093978 0.166320 22.953630 0.021675 -0.189801 -22.953458 -0.000000 0.000000 0.000000 1.147933 -0.978479 -0.375109 0.000000 0.000000 0.000000 -0.375677 -0.820453 -0.017351 -2.569081 2.291011 -14.132863 12.683277 1.004204 29.412530 -13.052815 0.059185 -15.049370 0.000000 0.000000 0.000000 0.000000 0.000000 0.000000 -0.000000 0.000000 0.000000 1.469893 -0.029652 8.088731 7.845246 -6.675400 -15.573016 15.812830 15.848148 42.699028 0.000000 0.000000 0.000000 0.000000 0.000000 0.000000 0.021675 -0.189801 -22.953458 -0.356343 -1.133819 -0.291107 11.830283 14.719813 -10.172883 0.000000 0.000000 0.000000 0.021675 -0.189801 -22.953458 -0.000000 0.000000 0.000000 -1.171684 41.800462 -24.517511 0.000000 0.000000 0.000000
23.231361 71.970269 365.978832 -0.111192 0.196362 23.103879 0.025222 -0.224244 -23.103639 -0.000000 0.000000 0.000000 1.473518 -1.230120 -0.469543 0.000000 0.000000 0.000000 -0.416947 -1.148263 -0.018687 -3.023040 2.921951 -16.700077 13.483130 1.047493 33.227260 -14.311815 -0.454832 -14.982579 0.000000 0.000000 0.000000 0.000000 0.000000 0.000000 -0.000000 0.000000 0.000000 1.839768 0.004152 10.206947 6.279874 -8.370285 -20.976087 18.432309 20.476656 48.486815 0.000000 0.000000 0.000000 0.000000 0.000000 0.000000 0.025222 -0.224244 -23.103639 -0.429879 -1.407148 -0.360518 11.465856 19.575585 -10.869394 0.000000 0.000000 0.000000 0.025222 -0.224244 -23.103639 -0.000000 0.000000 0.000000 -0.286054 44.990057 -26.972706 0.000000 0.000000 0.000000
23.203927 71.949530 365.959747 -0.121366 0.213736 23.222689 0.027256 -0.244275 -23.222405 -0.000000 0.000000 0.000000 1.770016 -1.443265 -0.549248 0.000000 0.000000 0.000000 -0.421610 -1.518366 -0.017610 -3.319203 3.455382 -18.286529 13.317338 0.436933 35.082355 -14.288927 -1.257883 -12.973453 0.000000 0.000000 0.000000 0.000000 0.000000 0.000000 -0.000000 0.000000 0.000000 2.145306 0.048447 12.017623 3.646155 -9.972746 -27.227319 19.868596 24.457129 52.446448 0.000000 0.000000 0.000000 0.000000 0.000000 0.000000 0.027256 -0.244275 -23.222405 -0.480728 -1.629030 -0.415822 9.221735 24.603661 -10.157003 0.000000 0.000000 0.000000 0.027256 -0.244275 -23.222405 -0.000000 0.000000 0.000000 -0.085530 45.770062 -27.571843 0.000000 0.000000 0.000000
23.168064 71.925834 365.942816 -0.138964 0.218849 23.311929 0.041014 -0.255976 -23.311572 -0.000000 0.000000 0.000000 2.194068 -1.628649 -0.624853 0.000000 0.000000 0.000000 -0.164982 -0.923253 -0.003601 -3.749587 3.969931 -19.136694 11.813764 -1.325707 32.989045 -12.142876 -4.814919 -3.146548 0.000000 0.000000 0.000000 0.000000 0.000000 0.000000 -0.000000 0.000000 0.000000 2.711589 0.137649 15.225555 -5.096318 -12.733051 -44.620958 21.909127 32.302884 57.202915 0.000000 0.000000 0.000000 0.000000 0.000000 0.000000 0.041014 -0.255976 -23.311572 -0.411918 -1.745900 -0.431048 7.231793 30.490883 -9.802527 0.000000 0.000000 0.000000 0.041014 -0.255976 -23.311572 -0.000000 0.000000 0.000000 -2.481560 39.611634 -22.445675 0.000000 0.000000 0.000000
23.133252 71.899496 365.940622 -0.142397 0.199869 23.353239 0.051504 -0.239941 -23.352883 -0.000000 0.000000 0.000000 2.458439 -1.777909 -0.681365 0.000000 0.000000 0.000000 -0.053406 -1.522056 0.007606 -3.839942 4.056225 -19.053920 10.481048 -2.542784 32.647420 -9.370891 -4.605255 1.151505 0.000000 0.000000 0.000000 0.000000 0.000000 0.000000 -0.000000 0.000000 0.000000 2.533063 0.247186 15.496991 -9.567631 -12.981908 -52.174509 19.466233 36.612777 62.780697 0.000000 0.000000 0.000000 0.000000 0.000000 0.000000 0.051504 -0.239941 -23.352883 -0.426359 -1.859014 -0.457572 -0.607234 32.491355 -4.033453 0.000000 0.000000 0.000000 0.051504 -0.239941 -23.352883 0.548301 0.637349 0.137875 -3.783638 28.705653 -16.356724 0.000000 0.000000 0.000000
23.105227 71.878424 365.941626 -0.123761 0.169602 23.392147 0.046253 -0.204798 -23.391882 -0.000000 0.000000 0.000000 2.590700 -1.810469 -0.696717 0.000000 0.000000 0.000000 -0.046632 -2.604586 0.015633 -3.544773 3.028049 -17.737152 8.307706 -2.260014 30.572526 -6.011107 -2.117145 1.172149 0.000000 0.000000 0.000000 0.000000 0.000000 0.000000 -0.000000 0.000000 0.000000 2.104066 0.312871 14.310135 -9.509175 -12.908663 -51.184097 15.372681 33.808809 62.219974 0.000000 0.000000 0.000000 0.000000 0.000000 0.000000 0.046253 -0.204798 -23.391882 -0.454236 -1.941501 -0.479496 -13.810479 38.549209 5.521254 0.000000 0.000000 0.000000 0.046253 -0.204798 -23.391882 -0.000000 0.000000 0.000000 -3.641621 30.679603 -16.751368 0.000000 0.000000 0.000000
23.087306 71.861950 365.938210 -0.097223 0.153449 23.417575 0.028230 -0.179449 -23.417401 -0.000000 0.000000 0.000000 2.619359 -1.859994 -0.712764 0.000000 0.000000 0.000000 -0.443791 -5.363240 -0.005538 -2.563562 2.151347 -15.653716 3.763262 -3.920997 29.080799 -0.016531 1.506302 1.717638 0.000000 0.000000 0.000000 0.000000 0.000000 0.000000 -0.000000 0.000000 0.000000 1.865423 0.448623 14.570421 -15.439380 -11.837173 -60.225205 15.336286 36.950747 64.883890 0.000000 0.000000 0.000000 0.000000 0.000000 0.000000 0.028230 -0.179449 -23.417401 -0.497051 -2.081678 -0.516162 -20.866647 40.281181 10.999944 0.000000 0.000000 0.000000 0.028230 -0.179449 -23.417401 -0.000000 0.000000 0.000000 -3.688624 30.206725 -16.463313 0.000000 0.000000 0.000000
23.080859 71.851289 365.929962 -0.041060 0.139768 23.508726 -0.018100 -0.144546 -23.508699 -0.000000 0.000000 0.000000 2.373670 -1.885210 -0.710201 0.000000 0.000000 0.000000 -0.537349 -6.251257 -0.012645 -1.947963 -0.288340 -14.342235 2.915061 -8.898189 37.398510 6.356377 10.696396 -13.683399 0.000000 0.000000 0.000000 0.000000 0.000000 0.000000 1.035405 -0.001460 -0.136500 1.179318 0.191250 13.745347 -23.496807 -8.240047 -69.776265 14.184199 44.197179 75.491208 0.000000 0.000000 0.000000 0.000000 0.000000 0.000000 -0.018100 -0.144546 -23.508699 -0.574230 -2.217577 -0.557171 -27.820402 41.853169 16.517180 0.000000 0.000000 0.000000 -0.018100 -0.144546 -23.508699 -0.000000 0.000000 0.000000 -3.207577 24.010409 -13.212879 0.000000 0.000000 0.000000
23.077337 71.844181 365.929246 0.031472 0.115120 23.664191 -0.075032 -0.092808 -23.664283 -0.000000 0.000000 0.000000 2.444149 -1.996651 -0.746704 0.000000 0.000000 0.000000 -0.586914 -6.936489 -0.016502 -1.828972 -1.261091 -14.486239 2.426355 -6.776968 36.930292 3.634352 10.051025 -17.855183 0.000000 0.000000 0.000000 0.000000 0.000000 0.000000 1.934302 -0.458251 -0.405997 1.237714 0.083158 12.939982 -22.316603 -8.626446 -65.528912 15.242888 39.586602 67.862835 0.000000 0.000000 0.000000 0.000000 0.000000 0.000000 -0.075032 -0.092808 -23.664283 -0.667855 -2.379857 -0.606605 -24.906475 40.982085 14.403371 0.000000 0.000000 0.000000 -0.075032 -0.092808 -23.664283 -0.597780 -0.911324 -0.176090 -1.926124 30.672941 -16.626579 0.000000 0.000000 0.000000
23.069573 71.841132 365.910498 0.082546 0.104611 23.841288 -0.117787 -0.062319 -23.841428 -0.000000 0.000000 0.000000 2.839499 -2.369053 -0.873470 0.000000 0.000000 0.000000 -0.609514 -7.362637 -0.018218 -2.901593 0.693123 -18.293372 1.970779 -2.372290 31.624276 3.404355 6.948187 -9.945419 0.000000 0.000000 0.000000 0.000000 0.000000 0.000000 3.044619 -1.000716 -0.720429 1.365174 -0.157313 11.723781 -13.120679 -12.836156 -53.942810 10.809716 31.139791 58.704358 0.000000 0.000000 0.000000 0.000000 0.000000 0.000000 -0.117787 -0.062319 -23.841428 -0.835301 -2.694754 -0.701082 -18.258468 39.502321 9.537489 0.000000 0.000000 0.000000 -0.117787 -0.062319 -23.841428 -0.592258 -0.902874 -0.174418 -1.889141 31.741736 -17.266034 0.000000 0.000000 0.000000
23.074168 71.841893 365.866134 0.135475 0.137131 23.966571 -0.179498 -0.070277 -23.966843 -0.000000 0.000000 0.000000 3.430945 -2.927968 -1.058470 0.000000 0.000000 0.000000 -0.406533 -6.658143 0.003247 -3.644631 2.636311 -20.207366 3.642914 0.092571 28.863139 2.994591 6.895998 -9.970430 0.000000 0.000000 0.000000 0.000000 0.000000 0.000000 4.217111 -1.581605 -1.041887 1.745742 -0.913422 8.182878 -3.572050 -13.917384 -39.917608 7.612755 23.394430 48.334604 0.000000 0.000000 0.000000 0.000000 0.000000 0.000000 -0.179498 -0.070277 -23.966843 -0.865638 -2.583293 -0.681327 -15.554309 42.181885 7.174737 0.000000 0.000000 0.000000 -0.179498 -0.070277 -23.966843 -0.767825 -0.998951 -0.212576 -1.501402 33.996639 -18.585676 0.000000 0.000000 0.000000
23.089211 71.834857 365.822378 0.169266 0.175141 24.047920 -0.225945 -0.090963 -24.048358 -0.000000 0.000000 0.000000 4.255098 -3.483105 -1.242194 0.000000 0.000000 0.000000 -0.181798 -5.798616 0.023657 -3.831162 3.068713 -19.985153 5.462150 3.903699 24.882585 3.568710 7.941366 -6.448361 0.000000 0.000000 0.000000 0.000000 0.000000 0.000000 5.307928 -2.135616 -1.332947 2.923070 -2.402481 3.732201 4.770583 -11.054726 -25.585398 4.446303 15.104851 36.528616 0.000000 0.000000 0.000000 0.000000 0.000000 0.000000 -0.225945 -0.090963 -24.048358 -0.840753 -2.643392 -0.690669 -14.064907 36.808674 6.467168 0.000000 0.000000 0.000000 -0.225945 -0.090963 -24.048358 -0.576151 -0.738907 -0.157355 -1.815173 29.058826 -15.889429 0.000000 0.000000 0.000000
